<?xml version="1.0" standalone="no"?>
<!DOCTYPE svg PUBLIC "-//W3C//DTD SVG 20010904//EN"
 "http://www.w3.org/TR/2001/REC-SVG-20010904/DTD/svg10.dtd">
<svg version="1.0" xmlns="http://www.w3.org/2000/svg"
 width="600.000000pt" height="600.000000pt" viewBox="0 0 600.000000 600.000000"
 preserveAspectRatio="xMidYMid meet">
<metadata>
Created by potrace 1.14, written by Peter Selinger 2001-2017
</metadata>
<g transform="translate(0.000000,600.000000) scale(0.100000,-0.100000)"
fill="#000000" stroke="none">
<path d="M0 3238 l0 -2763 237 -237 238 -238 2762 0 2763 0 0 2758 0 2757
-243 243 -242 242 -2758 0 -2757 0 0 -2762z m4890 2091 c0 -31 -55 -163 -242
-585 l-243 -544 -77 0 c-43 0 -78 2 -78 5 0 2 106 234 235 515 129 281 235
515 235 520 0 6 -117 10 -310 10 l-310 0 0 60 0 60 395 0 395 0 0 -41z m-1693
-1921 c-3 -845 -4 -917 -21 -973 -67 -225 -211 -372 -436 -447 -93 -31 -99
-32 -280 -33 -215 0 -263 9 -406 80 -74 36 -104 58 -160 117 -105 111 -152
224 -170 406 l-7 72 157 0 c177 0 159 10 170 -96 12 -121 94 -241 198 -289
117 -53 298 -54 414 -1 70 32 148 106 179 170 54 111 55 119 55 1049 l0 857
155 0 156 0 -4 -912z"/>
</g>
</svg>
